<svg width="349" height="259" viewBox="0 0 349 259" fill="none" xmlns="http://www.w3.org/2000/svg">
<path
    d="M269.678 103.289C273.557 103.289 277.281 103.877 280.986 104.413C279.786 100.399 278.551 96.3162 276.567 92.6483C274.584 87.3195 271.487 82.7001 268.408 78.046C265.833 73.0114 261.292 69.603 257.951 65.295C254.454 61.1081 249.687 58.3226 245.912 54.845C242.206 51.2117 237.352 49.3951 233.489 46.8345C229.453 44.5335 225.938 41.9902 222.18 40.7791L212.803 36.9382L204.556 33.5299L212.994 0L223.381 2.49138C226.704 3.32184 230.758 4.29071 235.368 5.44989C240.083 6.31496 245.111 8.68523 250.714 10.8479C256.246 13.3047 262.649 14.9656 268.599 18.9103C274.584 22.682 281.491 25.8308 287.58 30.8828C293.478 36.0904 300.594 40.6061 305.848 47.2325C311.59 53.4263 317.262 59.9316 321.663 67.3365C326.761 74.3954 330.223 82.1464 333.877 89.8109C337.183 97.4753 339.845 105.313 342.019 112.925C346.143 128.185 347.987 142.684 348.7 155.089C349.292 167.511 348.944 177.84 348.213 185.314C347.952 188.843 347.465 192.269 347.117 194.639L346.682 197.546L346.23 197.442C343.135 211.816 336.012 225.026 325.683 235.543C315.354 246.059 302.243 253.453 287.865 256.869C273.487 260.285 258.431 259.583 244.437 254.845C230.444 250.107 218.085 241.526 208.791 230.094C199.496 218.663 193.647 204.849 191.918 190.25C190.189 175.651 192.652 160.863 199.021 147.597C205.391 134.332 215.407 123.131 227.911 115.29C240.414 107.448 254.895 103.288 269.678 103.289ZM78.2972 103.289C82.177 103.289 85.9002 103.877 89.6061 104.413C88.4056 100.399 87.1703 96.3162 85.1869 92.6483C83.2035 87.3195 80.1067 82.7001 77.0272 78.046C74.4522 73.0114 69.9113 69.603 66.5708 65.295C63.0738 61.1081 58.3067 58.3226 54.5313 54.845C50.8255 51.2117 45.9713 49.3951 42.1089 46.8345C38.0726 44.5335 34.5581 41.9902 30.8001 40.7791L21.4225 36.9382L13.1757 33.5299L21.6139 0L32.0006 2.49138C35.3237 3.32184 39.3774 4.29071 43.9879 5.44989C48.7029 6.31496 53.731 8.68523 59.3332 10.8479C64.8484 13.322 71.2683 14.9656 77.2185 18.9276C83.2035 22.6993 90.1106 25.8481 96.2 30.9001C102.098 36.1077 109.214 40.6234 114.468 47.2325C120.21 53.4263 125.881 59.9316 130.283 67.3365C135.381 74.3954 138.843 82.1464 142.497 89.8109C145.802 97.4753 148.464 105.313 150.639 112.925C154.762 128.185 156.607 142.684 157.32 155.089C157.911 167.511 157.563 177.84 156.833 185.314C156.572 188.843 156.085 192.269 155.737 194.639L155.302 197.546L154.849 197.442C151.755 211.816 144.631 225.026 134.303 235.543C123.974 246.059 110.862 253.453 96.4846 256.869C82.1068 260.285 67.0502 259.583 53.0567 254.845C39.0632 250.107 26.7045 241.526 17.4103 230.094C8.11615 218.663 2.26624 204.849 0.537354 190.25C-1.19153 175.651 1.27124 160.863 7.64078 147.597C14.0103 134.332 24.0263 123.131 36.5302 115.29C49.034 107.448 63.5147 103.288 78.2972 103.289Z"
    fill="#F5F3FF"
/>
</svg>
