<svg width="41" height="32" viewBox="0 0 41 32" fill="none" xmlns="http://www.w3.org/2000/svg">
    <path
        d="M11.0432 13.1981H0.659542C0.534096 13.1981 0.411259 13.2339 0.305416 13.3013C0.19957 13.3686 0.115105 13.4647 0.0619011 13.5783C0.00870132 13.6919 -0.0110359 13.8183 0.00501251 13.9428C0.0210609 14.0672 0.0722237 14.1844 0.152508 14.2808L5.34433 20.5131C5.40628 20.5874 5.48382 20.6472 5.57143 20.6882C5.65905 20.7292 5.75462 20.7505 5.85136 20.7505C5.9481 20.7505 6.04367 20.7292 6.13129 20.6882C6.2189 20.6472 6.29644 20.5874 6.35839 20.5131L11.5502 14.2808C11.6305 14.1844 11.6817 14.0672 11.6977 13.9428C11.7138 13.8183 11.694 13.6919 11.6408 13.5783C11.5876 13.4647 11.5031 13.3686 11.3973 13.3013C11.2915 13.2339 11.1686 13.1981 11.0432 13.1981ZM40.092 18.4797H29.7084C29.5829 18.4797 29.4601 18.4439 29.3542 18.3765C29.2484 18.3092 29.1639 18.2131 29.1107 18.0995C29.0575 17.9859 29.0378 17.8595 29.0538 17.7351C29.0699 17.6106 29.121 17.4934 29.2013 17.397L34.3931 11.1647C34.4551 11.0904 34.5326 11.0306 34.6203 10.9896C34.7079 10.9486 34.8034 10.9273 34.9002 10.9273C34.9969 10.9273 35.0925 10.9486 35.1801 10.9896C35.2677 11.0306 35.3453 11.0904 35.4072 11.1647L40.599 17.397C40.6793 17.4934 40.7305 17.6106 40.7465 17.7351C40.7626 17.8595 40.7428 17.9859 40.6896 18.0995C40.6364 18.2131 40.552 18.3092 40.4461 18.3765C40.3403 18.4439 40.2174 18.4797 40.092 18.4797Z"
        fill="#7E6AFA" />
    <path fill-rule="evenodd" clip-rule="evenodd"
        d="M20.3763 2.63497C24.4749 2.63497 28.1403 4.50202 30.5619 7.43595C30.67 7.5761 30.8052 7.69308 30.9595 7.77994C31.1137 7.86679 31.2839 7.92174 31.4598 7.94151C31.6357 7.96129 31.8138 7.9455 31.9835 7.89507C32.1532 7.84463 32.311 7.7606 32.4475 7.64795C32.5841 7.53531 32.6966 7.39635 32.7784 7.23935C32.8602 7.08235 32.9095 6.91051 32.9236 6.73405C32.9376 6.55758 32.916 6.3801 32.8601 6.21215C32.8041 6.0442 32.715 5.88921 32.598 5.7564C30.6644 3.4154 28.0991 1.67903 25.2072 0.753809C22.3154 -0.17141 19.2186 -0.246541 16.2853 0.537351C13.3519 1.32124 10.7055 2.93117 8.66064 5.17565C6.61583 7.42013 5.25871 10.2047 4.7507 13.1982H7.4364C8.04611 10.2162 9.66689 7.53628 12.0247 5.61154C14.3825 3.68679 17.3327 2.63534 20.3763 2.63497ZM33.3163 18.4798C32.8163 20.9215 31.6358 23.172 29.911 24.9712C28.1862 26.7705 25.9876 28.045 23.5692 28.6476C21.1507 29.2502 18.6111 29.1563 16.2438 28.3767C13.8764 27.5972 11.7779 26.1637 10.1908 24.242C10.0826 24.1019 9.94741 23.9849 9.79316 23.898C9.63891 23.8112 9.46877 23.7562 9.29285 23.7364C9.11694 23.7167 8.93885 23.7325 8.76916 23.7829C8.59948 23.8333 8.44166 23.9174 8.30511 24.03C8.16855 24.1427 8.05604 24.2816 7.97427 24.4386C7.89249 24.5956 7.84312 24.7674 7.82909 24.9439C7.81505 25.1204 7.83665 25.2979 7.89258 25.4658C7.94852 25.6338 8.03766 25.7888 8.1547 25.9216C10.0883 28.2626 12.6535 29.9989 15.5454 30.9241C18.4373 31.8494 21.5341 31.9245 24.4674 31.1406C27.4007 30.3567 30.0472 28.7468 32.092 26.5023C34.1368 24.2578 35.4939 21.4733 36.002 18.4798H33.3163Z"
        fill="#7E6AFA" />
</svg>
